<?xml version="1.0" encoding="UTF-8"?>
<svg width="189px" height="199px" viewBox="0 0 189 199" version="1.1" xmlns="http://www.w3.org/2000/svg" xmlns:xlink="http://www.w3.org/1999/xlink">
    <!-- Generator: Sketch 58 (84663) - https://sketch.com -->
    <title>人物</title>
    <desc>Created with Sketch.</desc>
    <g id="网页" stroke="none" stroke-width="1" fill="none" fill-rule="evenodd">
        <g id="登录注册" transform="translate(-761.000000, -750.000000)" fill-rule="nonzero">
            <g id="人物" transform="translate(761.000000, 750.000000)">
                <path d="M183.290106,182.39701 C183.290106,179.497515 180.968764,177.14701 178.105289,177.14701 L135.474885,177.14701 C138.338358,182.946 136.017053,189.997513 130.290106,192.89701 C130.290106,195.796505 132.611411,198.14701 135.474885,198.14701 C144.317174,198.049003 150.952256,198 155.380131,198 C160.425687,198 168.000752,198.049003 178.105325,198.14701 C179.957668,198.14701 181.669305,197.146366 182.595477,195.52201 C183.521649,193.897654 183.521649,191.896366 182.595477,190.27201 C181.669305,188.647654 179.957668,187.64701 178.105325,187.64701 C180.968764,187.64701 183.290106,185.296505 183.290106,182.39701 Z" id="路径" fill="#F2F2F2" opacity="0.1"></path>
                <path d="M76.2673983,176.067142 C76.7609761,195.16568 69.1470781,198.069452 57.7737597,198 C52.1626982,197.965736 45.6493083,197.31816 38.7180933,197.31816 C17.7376797,197.31816 0.43170231,200.953081 0.290105522,176.067142 C0.220689601,163.812516 17.423312,161.14701 38.4037985,161.14701 C59.3842849,161.14701 75.9508427,163.816387 76.2673983,176.067142 Z" id="路径" fill="#3F3D56"></path>
                <path d="M124.400742,187.667239 C124.064215,187.487601 123.698263,187.369714 123.32021,187.319159 C121.428583,187.018614 119.554263,186.617634 117.705186,186.11792 C115.848317,185.613717 114.142375,184.663876 112.735278,183.350754 C112.210049,182.733679 111.623571,182.17156 110.984864,181.673044 C110.322844,181.173182 109.42921,181.108933 108.702581,181.508957 C108.629406,181.566614 108.561739,181.630946 108.500453,181.701126 C108.241711,181.530059 107.982818,181.35904 107.723774,181.18807 C106.344238,180.279399 104.958066,179.380947 103.565257,178.492714 L103.508642,178.456637 C103.548425,178.237684 103.549774,178.013468 103.512628,177.794052 C103.269409,177.073267 102.777696,176.462679 102.125562,176.071653 C103.923079,176.054394 105.72989,175.89018 107.516338,175.701183 C109.217787,175.730307 110.862131,175.087115 112.092825,173.911072 C112.278183,173.706693 112.390354,173.44643 112.411678,173.171256 C112.413888,172.608037 111.83314,172.23967 111.312341,172.026217 C110.619081,171.7423 109.898773,171.529645 109.162527,171.391533 C108.647854,171.319188 108.138536,171.212803 107.637919,171.073076 C107.192266,170.910833 106.762578,170.707656 106.354353,170.466147 C105.468859,169.9784 104.583371,169.490683 103.697889,169.002996 C103.320582,168.819785 102.973969,168.579097 102.670421,168.289522 C102.219316,167.811836 102.019797,167.136742 101.560032,166.667359 C101.136519,166.234815 99.4237151,165.665414 99.1786873,166.551622 C99.0818175,166.901606 99.4513612,167.289009 99.4960369,167.680381 C98.9034428,167.307871 98.2895867,166.970358 97.6576122,166.669571 C97.6918889,166.591343 97.7374342,166.520313 97.7670731,166.43933 C94.8278098,164.081805 92.4928701,161.05672 90.9560773,157.615188 C91.2194755,157.621044 91.4826381,157.637868 91.7459638,157.635765 C92.1941604,157.677007 92.6432785,157.567218 93.0219929,157.323834 C93.3384521,157.035845 93.5051844,156.618355 93.4742391,156.191431 C93.4401993,155.770634 93.3370162,155.358339 93.1688465,154.971156 C92.7932695,153.810759 92.1941692,152.735226 91.4053887,151.805312 C90.6412418,151.066858 89.7703332,150.447755 88.8219525,149.968826 L88.668921,149.882749 C88.6043351,149.686954 88.5455103,149.489346 88.4674456,149.297956 C87.8953699,148.108111 87.248228,146.955893 86.5299409,145.848281 C85.5191075,143.993677 84.773416,142.00627 84.3146897,139.944224 C84.1450263,138.688077 83.6643531,137.494273 82.916355,136.471308 C81.5337094,134.946535 79.1625824,134.985041 77.1182256,135.215645 C75.9518748,135.347208 74.7908322,135.523025 73.6311121,135.70332 C73.620061,135.674222 73.6193907,135.642134 73.6076692,135.613254 C73.4622542,135.340074 73.3715786,135.041095 73.3407383,134.733118 C73.3696628,134.48129 73.4247329,134.233164 73.5050564,133.992759 C73.6316541,133.385827 73.4404428,132.756178 72.9977898,132.322355 C72.9495814,132.276107 72.9017715,132.223986 72.8538167,132.173188 C72.9814305,131.871772 73.0985849,131.567703 73.20528,131.260982 C73.3998678,131.032236 73.4920547,130.733567 73.460272,130.434853 C73.670856,129.691905 73.7821786,128.924319 73.7913359,128.152118 C73.5531323,126.446183 73.4917712,124.720179 73.6082308,123.001618 C73.547831,122.57593 73.3930841,122.169141 73.1553142,121.81102 C73.1128487,121.753805 73.0420851,121.727626 72.9938766,121.676683 C73.3467859,121.208342 73.7548782,120.784324 74.2093054,120.413823 C75.1023151,119.724117 76.0571912,119.118589 77.0617197,118.604984 C77.3023271,118.472423 77.6380289,118.378151 77.86802,118.226229 C78.2207138,118.28568 78.5769656,118.321613 78.9344211,118.333789 C81.6303033,118.350176 84.1590618,117.028506 85.6859119,114.805085 C87.2127621,112.581664 87.5392057,109.745548 86.5574782,107.232985 C87.3011463,107.052164 87.9409361,106.579732 88.3329113,105.921973 C88.7307534,105.230766 88.9687902,104.459145 89.0295332,103.663803 C89.1580623,103.047056 89.0353136,102.404482 88.6885232,101.878659 C88.3835635,101.582857 88.0333474,101.337696 87.6511087,101.15244 C87.1239694,100.823018 86.6813288,100.374539 86.3587022,99.8429876 C86.1295989,99.4645591 85.9655706,99.0509419 85.7596023,98.6594604 C85.0629325,97.181257 83.6029713,96.2130478 81.9710819,96.14701 C81.2102524,96.2438268 80.4571606,96.3940161 79.717369,96.5964686 C77.1811991,97.0415218 74.4241147,95.6986391 72.0713037,96.7459618 C71.4922207,97.0277466 70.9540381,97.3868824 70.4714936,97.8135348 C69.808931,98.3602625 69.1721665,98.9362023 68.5612001,99.5413543 C68.030531,99.9939532 67.6289072,100.578936 67.3970596,101.236976 C67.0774998,102.438107 67.8375844,103.78021 67.3539419,104.925122 C67.1883651,105.252842 66.9907949,105.563366 66.7641177,105.852158 C66.230274,106.635574 66.8101159,109.693985 66.7512911,110.640382 C66.6831283,111.103736 66.8007831,111.575267 67.0786049,111.952173 C67.1493836,112.023372 67.2295114,112.084606 67.3167846,112.13419 C63.370751,113.542865 59.5115472,115.184157 55.7594404,117.049446 C51.254828,119.229946 47.5159113,122.724748 45.035191,127.073504 C44.3982816,128.316332 43.9139507,129.630879 43.3376596,130.903148 C42.5696037,132.599785 41.6401283,134.217506 40.7119392,135.832254 C39.5798651,137.801736 38.4457982,139.774662 37.1365794,141.630945 C36.3901048,142.61511 35.6990471,143.640159 35.0666238,144.701321 C35.0497728,144.855955 35.045187,145.011682 35.0529095,145.167041 C35.0780669,145.313585 35.0635542,145.464196 35.0108788,145.603229 C34.8959574,145.766475 34.7146045,145.870312 34.5157323,145.886733 L34.484934,145.96661 C34.1891791,146.920727 33.9439491,147.889798 33.750267,148.869781 C33.3637118,150.427077 32.7475822,151.930186 32.5105075,153.517268 C32.2287458,153.923559 32.2161341,154.458811 32.4784473,154.877938 C32.7407605,155.297066 33.2274918,155.519369 33.7157729,155.443059 C35.0729828,156.047105 36.3806435,156.754378 37.6841012,157.467762 C37.6648613,157.563465 37.635005,157.655652 37.6228488,157.753459 C37.534489,159.813839 38.6370785,161.741694 40.4571102,162.709107 C42.2555546,163.628523 44.2252063,164.164176 46.2413079,164.282139 C47.0228607,164.375976 47.8092688,164.419667 48.5921442,164.499562 C49.7344791,165.135302 50.9504558,165.628366 52.2128137,165.9677 C52.4884605,166.048075 52.7732718,166.092735 53.060275,166.100587 C53.8378555,166.048462 54.5500765,165.646947 54.9975442,165.008449 C61.7341125,165.3809 68.4891832,165.242967 75.204961,164.595828 C77.0638752,164.162769 79.0181295,164.465933 80.6587651,165.441881 C82.1154898,166.626514 82.4082913,168.726453 83.4905989,170.261414 C84.2774745,171.207754 85.1604811,172.069717 86.1253958,172.833419 C88.0436797,174.865284 89.7397775,177.096223 91.1848726,179.488333 C92.6444266,181.903834 94.7579677,183.856129 97.2806769,185.119074 C97.7344728,184.394651 98.3930301,183.821401 99.1728356,183.47202 C99.3745284,183.351969 99.5669274,183.211885 99.7650693,183.082751 C100.031476,183.515536 100.341449,183.9199 100.690142,184.289519 C100.949555,184.570358 101.207862,184.867006 101.450463,185.173063 C101.442727,185.173843 101.436096,185.16931 101.42836,185.170525 C101.075611,185.225964 100.957526,185.667011 100.917054,186.021998 C100.762035,187.381227 100.606836,188.740432 100.451455,190.099613 C100.396463,190.368218 100.415246,190.646716 100.505805,190.905491 C100.673037,191.186534 100.931824,191.401425 101.238697,191.51407 C102.499296,192.119421 103.863373,192.479527 105.258332,192.575225 C105.960262,192.622923 106.665743,192.603325 107.36635,192.665073 C108.515582,192.814052 109.653313,193.041346 110.771613,193.345371 C113.815842,194.039926 116.945227,194.285145 120.060388,194.073239 C120.703628,194.057636 121.340002,193.936999 121.944376,193.716094 C122.659152,193.372964 123.293006,192.88192 123.804034,192.275423 C124.45317,191.659049 124.934647,190.887316 125.203021,190.033061 C125.459034,189.154099 125.138455,188.208751 124.400742,187.667239 Z" id="路径" fill="#3F3D56"></path>
                <path d="M74.3443996,96.238213 C74.6625739,96.179993 74.9761289,96.089653 75.2901055,96.005313 C74.2809577,95.8745608 73.2565907,95.9778443 72.2901055,96.307793 C72.975009,96.3727621 73.6649758,96.3493926 74.3443996,96.238213 Z" id="路径" fill="#FF6584"></path>
                <path d="M80.3981796,98.6876761 C80.6073028,99.0835483 80.7739757,99.5018046 81.00667,99.8844774 C81.3343536,100.421991 81.7839322,100.8755 82.3193341,101.208616 C82.707564,101.39595 83.0632695,101.64386 83.3730093,101.94298 C83.7252353,102.474701 83.849908,103.124481 83.7193643,103.748146 C83.6576692,104.552409 83.4159014,105.332684 83.0118233,106.031644 C82.6137043,106.696779 81.9638862,107.17451 81.2085617,107.357359 C82.3619601,110.075636 81.9366294,113.204135 80.0989878,115.518774 C78.2613463,117.833414 75.3035551,118.966196 72.3829027,118.473901 C72.1492147,118.627527 71.808343,118.722856 71.5639643,118.856904 C70.5436905,119.376269 69.5738474,119.988589 68.6668405,120.68603 C68.2052905,121.060686 67.7908016,121.48946 67.4323608,121.963054 C67.4813249,122.014642 67.5531977,122.041041 67.5963288,122.098898 C67.8378256,122.461036 67.994998,122.872387 68.0563445,123.302849 C67.9380595,125.040685 68.0003824,126.786048 68.2423196,128.511116 C68.2330188,129.291978 68.1199513,130.068173 67.9060666,130.819454 C67.9383474,131.121518 67.8447156,131.423537 67.6470777,131.654848 C67.538146,131.96501 67.4191553,132.272489 67.2901055,132.577285 C67.3388488,132.628616 67.3873712,132.681359 67.4363353,132.728125 C67.8859266,133.166814 68.0801349,133.803525 67.9515529,134.417264 C67.8699704,134.660365 67.8140371,134.911275 67.7846592,135.165927 C67.815983,135.477358 67.9080799,135.77969 68.0557741,136.055934 C68.0676793,136.085138 68.0683601,136.117586 68.0795845,136.14701 C69.2574823,135.96473 70.436705,135.786941 71.6213559,135.653865 C72.2049814,135.586005 72.791683,135.547647 73.3792047,135.538939 C73.3348348,135.419272 73.3097392,135.293368 73.3048478,135.165891 C73.3342256,134.911238 73.3901589,134.660329 73.4717415,134.417228 C73.6003234,133.803489 73.4061151,133.166777 72.9565239,132.728088 C72.9075598,132.681322 72.8590005,132.628616 72.8102941,132.577248 C72.9399081,132.272452 73.0588988,131.964973 73.1672663,131.654811 C73.3649041,131.4235 73.458536,131.121481 73.4262551,130.819417 C73.6401398,130.068136 73.7532073,129.291941 73.7625082,128.511079 C73.5205709,126.786011 73.4582481,125.040648 73.576533,123.302813 C73.5151865,122.87235 73.3580141,122.460999 73.1165173,122.098861 C73.0733863,122.041004 73.0015134,122.014532 72.9525493,121.963018 C73.3109902,121.489423 73.7254791,121.06065 74.1870291,120.685993 C75.094036,119.988552 76.0638791,119.376232 77.0841528,118.856867 C77.3285316,118.72282 77.6694952,118.62749 77.9030912,118.473864 C78.2613133,118.533982 78.6231491,118.570318 78.9862074,118.582631 C81.7243456,118.599201 84.2927404,117.262708 85.8435228,115.01435 C87.3943052,112.765991 87.7258655,109.898066 86.7287503,107.357322 C87.4840748,107.174473 88.1338928,106.696742 88.5320119,106.031607 C88.9360899,105.332647 89.1778578,104.552372 89.2395528,103.748109 C89.3700965,103.124445 89.2454239,102.474664 88.8931978,101.942943 C88.5834581,101.643824 88.2277525,101.395913 87.8395226,101.20858 C87.3041207,100.875463 86.8545421,100.421954 86.5268586,99.8844408 C86.2941642,99.5017679 86.1275649,99.0835117 85.9183682,98.6876394 C85.2107787,97.1928568 83.7279337,96.2137885 82.0704656,96.14701 C81.2977106,96.2449127 80.5328147,96.3967865 79.7814274,96.6015096 C79.3597807,96.6683799 78.9328546,96.6964736 78.506043,96.6854359 C79.3082756,97.1683847 79.9626065,97.8607912 80.3981796,98.6876761 L80.3981796,98.6876761 Z" id="路径" fill="#FF6584"></path>
                <path d="M124.39234,187.675821 C124.052673,187.496325 123.683308,187.378531 123.30173,187.328016 C121.392461,187.027708 119.500659,186.627045 117.634337,186.127725 C115.76015,185.623921 114.038298,184.67483 112.618077,183.362745 C112.08795,182.746157 111.496002,182.184482 110.851338,181.68636 C110.183143,181.186893 109.281175,181.122695 108.547769,181.522402 C108.473912,181.580014 108.405614,181.644295 108.343756,181.71442 C108.082601,181.543488 107.821293,181.372604 107.559833,181.201769 C106.167431,180.293816 104.768331,179.396074 103.362532,178.508542 L103.305389,178.472494 C103.345543,178.253713 103.346904,178.029675 103.309412,177.810432 C103.063925,177.090216 102.567626,176.48011 101.909409,176.089393 C103.723691,176.072148 105.547354,175.908063 107.350463,175.719216 C109.06778,175.748317 110.72746,175.105633 111.969632,173.930518 C112.156719,173.726301 112.269936,173.466244 112.291459,173.191287 C112.29369,172.628513 111.707526,172.260437 111.181869,172.047152 C110.482143,171.763459 109.755118,171.550972 109.012005,171.412969 C108.492532,171.340682 107.978464,171.23438 107.473178,171.094764 C107.023368,170.932649 106.589672,170.729633 106.177641,170.488314 C105.283888,170.000952 104.390141,169.51362 103.496401,169.026318 C103.115575,168.843252 102.76573,168.602755 102.45935,168.313408 C102.004038,167.836099 101.802658,167.161538 101.338605,166.692526 C100.911142,166.260324 99.1823639,165.691372 98.9350508,166.576881 C98.8372775,166.926589 99.2102678,167.313685 99.2553601,167.704749 C98.6572392,167.332533 98.037658,166.995286 97.3997894,166.694736 C97.4343858,166.616571 97.4803559,166.545597 97.5102712,166.464678 C94.5435948,164.109014 92.1868783,161.086318 90.6357525,157.647505 C90.9016073,157.653356 91.1672243,157.670166 91.4330059,157.668065 C91.8853826,157.709275 92.3386894,157.599573 92.7209359,157.356381 C93.0403465,157.068619 93.2086339,156.651459 93.1774,156.224872 C93.1430427,155.804407 93.0388973,155.392438 92.8691592,155.005561 C92.4900793,153.84608 91.8853915,152.771396 91.0892544,151.842217 C90.3179807,151.104346 89.4389496,150.485733 88.4817237,150.007182 L88.327265,149.921172 C88.2620768,149.725532 88.2027033,149.52808 88.1239106,149.336841 C87.5464994,148.147937 86.8933219,146.996628 86.1683357,145.889891 C85.1480747,144.036752 84.3954285,142.050914 83.9324239,139.990497 C83.7611782,138.735342 83.2760219,137.54248 82.5210477,136.520324 C81.1255068,134.996755 78.7322654,135.035231 76.6688419,135.265652 C76.2076784,135.317171 75.7498611,135.393797 75.2901055,135.456474 C75.9572142,135.650594 76.5597941,136.017895 77.0354139,136.520324 C77.7903882,137.54248 78.2755445,138.735342 78.4467902,139.990497 C78.9097948,142.050914 79.662441,144.036752 80.682702,145.889891 C81.4076881,146.996628 82.0608656,148.147937 82.6382768,149.336841 C82.7170696,149.528116 82.776443,149.725586 82.8416313,149.921172 L82.99609,150.007182 C83.9533159,150.485733 84.832347,151.104346 85.6036206,151.842217 C86.3997578,152.771396 87.0044455,153.84608 87.3835255,155.005561 C87.5532636,155.392438 87.657409,155.804407 87.6917663,156.224872 C87.7230002,156.651459 87.5547128,157.068619 87.2353021,157.356381 C86.8530557,157.599573 86.3997489,157.709275 85.9473722,157.668065 C85.6815174,157.670166 85.4159004,157.653356 85.1501188,157.647505 C86.7012445,161.086318 89.057961,164.109014 92.0246374,166.464678 C91.9947221,166.545615 91.9487521,166.616589 91.9141557,166.694736 C92.5520243,166.995286 93.1716055,167.332533 93.7697264,167.704749 C93.724634,167.313685 93.3516438,166.926589 93.449417,166.576881 C93.6967302,165.691372 95.4255084,166.260324 95.8529715,166.692526 C96.3170242,167.161538 96.5183672,167.836099 96.973716,168.313408 C97.2800958,168.602755 97.6299415,168.843252 98.0107671,169.026318 C98.9045077,169.513572 99.7982544,170.000904 100.692007,170.488314 C101.104039,170.729633 101.537734,170.932649 101.987544,171.094764 C102.49283,171.23438 103.006898,171.340682 103.526371,171.412969 C104.269484,171.550972 104.99651,171.763459 105.696235,172.047152 C106.221892,172.260437 106.808001,172.628513 106.805825,173.191287 C106.784302,173.466244 106.671086,173.726301 106.483998,173.930518 C105.241827,175.105633 103.582147,175.748317 101.864829,175.719216 C100.06172,175.908063 98.2380575,176.072148 96.4237757,176.089393 C97.0819919,176.48011 97.5782913,177.090216 97.8237783,177.810432 C97.8612705,178.029675 97.8599092,178.253713 97.8197554,178.472494 L97.876898,178.508542 C99.2826972,179.396037 100.681798,180.29378 102.0742,181.201769 C102.335806,181.372266 102.597114,181.54315 102.858123,181.71442 C102.91998,181.644295 102.988278,181.580014 103.062135,181.522402 C103.795541,181.122695 104.69751,181.186893 105.365704,181.68636 C106.010368,182.184482 106.602316,182.746157 107.132443,183.362745 C108.552664,184.67483 110.274516,185.623921 112.148703,186.127725 C114.015026,186.627045 115.906827,187.027708 117.816096,187.328016 C118.197674,187.378531 118.56704,187.496325 118.906706,187.675821 C119.651372,188.21691 119.97497,189.161583 119.716521,190.039901 C119.445645,190.893482 118.959678,191.664605 118.304487,192.280492 C117.788693,192.88651 117.148928,193.377166 116.427485,193.720026 C115.980993,193.887806 115.512106,193.989909 115.035748,194.023087 C116.690502,194.167842 118.354068,194.185811 120.011615,194.076834 C120.660854,194.061243 121.303163,193.940702 121.913174,193.719971 C122.634616,193.377112 123.274381,192.886455 123.790176,192.280438 C124.445366,191.664551 124.931333,190.893427 125.20221,190.039847 C125.460622,189.161534 125.137004,188.216887 124.39234,187.675821 Z" id="路径" fill="#FF6584"></path>
                <path d="M94.1414255,183.0358 C94.2405455,183.1265 94.3374255,183.22024 94.4387855,183.3079 C94.3650655,183.20022 94.2832855,183.09684 94.2171055,182.98612 L94.1414255,183.0358 Z" id="路径" fill="#FF6584"></path>
                <path d="M175.290106,167.613411 C175.290106,186.759189 166.783486,181.480011 156.290106,181.480011 C145.796725,181.480011 137.290106,186.759189 137.290106,167.613411 C137.290106,148.467633 156.290106,112.14701 156.290106,112.14701 C156.290106,112.14701 175.290106,148.46767 175.290106,167.613411 Z" id="路径" fill="#FF6584"></path>
                <path d="M165.290106,175.503079 C165.290106,184.255435 161.484533,181.842096 156.790106,181.842096 C152.095695,181.842096 148.290106,184.255435 148.290106,175.503079 C148.290106,166.750723 156.790106,150.14701 156.790106,150.14701 C156.790106,150.14701 165.290106,166.750723 165.290106,175.503079 Z" id="路径" fill="#000000" opacity="0.1"></path>
                <path d="M180.290106,116.14701 C180.290106,116.14701 184.3701,112.108347 184.28891,108.14701" id="路径" fill="#FF6584"></path>
                <path d="M139.290106,82.14701 C139.290106,82.14701 137.70477,76.9573291 134.290106,75.14701" id="路径" fill="#FF6584"></path>
                <path d="M99.2901055,7.14701 C99.2901055,7.14701 97.7047701,1.95732911 94.2901055,0.14701" id="路径" fill="#FF6584"></path>
                <path d="M146.290106,107.14701 C146.290106,107.14701 144.70477,101.957329 141.290106,100.14701" id="路径" fill="#FF6584"></path>
                <path d="M141.290106,18.14701 C141.290106,18.14701 139.70477,12.9573291 136.290106,11.14701" id="路径" fill="#FF6584"></path>
                <path d="M130.290106,51.14701 C130.290106,51.14701 128.70477,45.9573291 125.290106,44.14701" id="路径" fill="#FF6584"></path>
                <path d="M176.290106,173.14701 C176.290106,173.14701 180.3701,169.108347 180.28891,165.14701" id="路径" fill="#FF6584"></path>
                <path d="M184.290106,142.14701 C184.290106,142.14701 188.3701,138.108347 188.28891,134.14701" id="路径" fill="#FF6584"></path>
                <polygon id="矩形" fill="#FF6584" transform="translate(112.814205, 144.892607) rotate(-18.434950) translate(-112.814205, -144.892607) " points="89.825906 143.986368 135.802767 143.979734 135.802505 145.798847 89.8256436 145.805481"></polygon>
                <path d="M130.813668,138.941276 C132.392595,145.319438 129.74161,143.79583 127.323613,144.312981 C124.905617,144.830132 125.381216,147.13107 122.057384,140.814216 C119.758581,136.445398 123.129459,135.959662 125.547438,135.442511 C127.965418,134.92536 129.73551,134.585918 130.813668,138.941276 Z" id="路径" fill="#FF6584"></path>
            </g>
        </g>
    </g>
</svg>