<?xml version="1.0" encoding="UTF-8"?>
<svg width="97px" height="102px" viewBox="0 0 97 102" version="1.1" xmlns="http://www.w3.org/2000/svg" xmlns:xlink="http://www.w3.org/1999/xlink">
    <!-- Generator: Sketch 58 (84663) - https://sketch.com -->
    <title>树叶</title>
    <desc>Created with Sketch.</desc>
    <g id="网页" stroke="none" stroke-width="1" fill="none" fill-rule="evenodd" fill-opacity="0.390105988">
        <g id="登录注册" transform="translate(-404.000000, -846.000000)" fill="#FFFFFF" fill-rule="nonzero">
            <g id="树叶" transform="translate(404.000000, 846.000000)">
                <g id="编组-6">
                    <rect id="矩形" x="39" y="57" width="1" height="45"></rect>
                    <path d="M49.6723353,48.9046841 C49.7440057,64.6448073 38.802467,77.456 38.802467,77.456 C38.802467,77.456 27.7447133,64.7474228 27.6730365,49.0073029 C27.6013597,33.267183 38.5429048,20.456 38.5429048,20.456 C38.5429048,20.456 49.6006585,33.1645643 49.6723353,48.9046841 Z" id="路径"></path>
                    <rect id="矩形" x="24" y="43" width="1" height="59"></rect>
                    <path d="M38.6722237,37.3893835 C38.7667063,57.8239208 24.3437683,74.456 24.3437683,74.456 C24.3437683,74.456 9.76764052,57.9571474 9.67314814,37.5226165 C9.57865576,17.0880857 24.0016165,0.456 24.0016165,0.456 C24.0016165,0.456 38.5777411,16.9548364 38.6722237,37.3893835 Z" id="路径"></path>
                    <rect id="矩形" x="11" y="57" width="1" height="45"></rect>
                    <path d="M22.6723353,48.9046841 C22.7440057,64.6448073 11.802467,77.456 11.802467,77.456 C11.802467,77.456 0.744713327,64.7474228 0.673036489,49.0073029 C0.601359651,33.267183 11.5429048,20.456 11.5429048,20.456 C11.5429048,20.456 22.6006585,33.1645643 22.6723353,48.9046841 Z" id="路径"></path>
                </g>
                <g id="编组-3" transform="translate(81.000000, 59.000000)">
                    <polygon id="矩形" points="7.80062783 19.5210296 8.87176717 19.5210296 8.87176717 43 7.80062783 43"></polygon>
                    <path d="M15.999745,14.9729917 C16.051869,23.257267 8.09438627,30 8.09438627,30 C8.09438627,30 0.052383612,23.3112751 0.00025500255,15.0270015 C-0.0518736069,6.74272791 7.90561378,0 7.90561378,0 C7.90561378,0 15.9476164,6.68871803 15.999745,14.9729917 Z" id="路径"></path>
                </g>
            </g>
        </g>
    </g>
</svg>