<?xml version="1.0" encoding="UTF-8"?>
<svg width="154px" height="147px" viewBox="0 0 154 147" version="1.1" xmlns="http://www.w3.org/2000/svg" xmlns:xlink="http://www.w3.org/1999/xlink">
    <!-- Generator: Sketch 58 (84663) - https://sketch.com -->
    <title>编组 2</title>
    <desc>Created with Sketch.</desc>
    <g id="网页" stroke="none" stroke-width="1" fill="none" fill-rule="evenodd">
        <g id="云盘备份-15" transform="translate(-1044.000000, -445.000000)">
            <g id="编组-2" transform="translate(1044.000000, 446.000000)">
                <g id="编组-13" transform="translate(0.000000, 28.231740)">
                    <g id="编组" transform="translate(0.000000, -0.000000)" fill-rule="nonzero">
                        <path d="M19.2375,0 L80.4375,0 L118.8375,32.8 L118.8375,100.6 C118.8375,109.62 110.1975,117 99.6375,117 L19.2375,117 C8.67750005,117 0.0375000469,109.62 0.0375000469,100.6 L0.0375000469,16.4 C0.0375000469,7.38 8.67750005,0 19.2375,0 Z" id="形状" fill-opacity="0.06" fill="#000000"></path>
                        <path d="M80.4375,0 L118.8375,33 L90.0375,33 C84.2775,33 80.4375,29.7 80.4375,24.75 L80.4375,0 Z" id="路径" fill="#FFFFFF" opacity="0.619"></path>
                    </g>
                    <rect id="矩形" fill="#D8D8D8" x="14" y="43" width="24" height="6" rx="3"></rect>
                    <rect id="矩形备份" fill="#D8D8D8" x="54" y="43" width="24" height="6" rx="3"></rect>
                    <rect id="矩形" fill="#D8D8D8" x="39" y="76" width="10" height="6" rx="3"></rect>
                </g>
                <polyline id="路径-11" stroke-opacity="0.1" stroke="#000000" stroke-width="2" stroke-linecap="round" stroke-linejoin="round" points="119.981159 32.5805337 131.123041 30 122.839277 45 133.981159 42.4194663"></polyline>
                <polyline id="路径-11" stroke-opacity="0.06" stroke="#000000" stroke-width="2" stroke-linecap="round" stroke-linejoin="round" points="144.162525 20 152.981159 22.1273326 141.981159 29.8726674 150.799792 32"></polyline>
                <polyline id="路径-11备份" stroke-opacity="0.04" stroke="#000000" stroke-width="2" stroke-linecap="round" stroke-linejoin="round" points="137.981159 1.38777494 144.360973 0 139.601345 8 145.981159 6.61222506"></polyline>
                <path d="M60.7640738,95.2021371 C60.7640738,95.2021371 60.7640738,95.2021371 60.7640738,95.2021371 C61.1125332,95.2021371 61.4609926,95.2021371 61.809452,95.2021371 C65.2532243,95.2021371 68.0449534,97.9938662 68.0449534,101.437639 C68.0449534,105.127482 65.3445039,108.261659 61.6952142,108.80721 C59.350924,109.157682 57.7872253,109.274888 57.0041178,109.158829 C54.5338012,108.792721 49.7930808,107.951261 50.0606197,107.67314 C51.8432534,105.819995 52.8969052,103.824243 53.2215751,101.685882 C53.7876692,97.9574991 56.9929596,95.2021371 60.7640738,95.2021371 Z" id="矩形" fill="#FFFFFF" transform="translate(59.047356, 102.202137) rotate(5.000000) translate(-59.047356, -102.202137) "></path>
            </g>
        </g>
    </g>
</svg>