<?xml version="1.0" encoding="UTF-8"?>
<svg width="125px" height="132px" viewBox="0 0 125 132" version="1.1" xmlns="http://www.w3.org/2000/svg" xmlns:xlink="http://www.w3.org/1999/xlink">
    <!-- Generator: Sketch 58 (84663) - https://sketch.com -->
    <title>编组 13</title>
    <desc>Created with Sketch.</desc>
    <g id="网页" stroke="none" stroke-width="1" fill="none" fill-rule="evenodd">
        <g id="云盘备份-11" transform="translate(-1057.000000, -474.000000)">
            <g id="编组-13" transform="translate(1057.000000, 474.000000)">
                <g id="编组" transform="translate(0.000000, -0.000000)" fill-rule="nonzero">
                    <path d="M19.2375,0 L80.4375,0 L118.8375,32.8 L118.8375,100.6 C118.8375,109.62 110.1975,117 99.6375,117 L19.2375,117 C8.67750005,117 0.0375000469,109.62 0.0375000469,100.6 L0.0375000469,16.4 C0.0375000469,7.38 8.67750005,0 19.2375,0 Z" id="形状" fill-opacity="0.06" fill="#000000"></path>
                    <path d="M80.4375,0 L118.8375,33 L90.0375,33 C84.2775,33 80.4375,29.7 80.4375,24.75 L80.4375,0 Z" id="路径" fill="#FFFFFF" opacity="0.619"></path>
                </g>
                <rect id="矩形" fill="#D8D8D8" x="14" y="33" width="50" height="6" rx="3"></rect>
                <rect id="矩形" fill="#D8D8D8" x="14" y="58" width="59" height="6" rx="3"></rect>
                <rect id="矩形" fill="#D8D8D8" x="14" y="83" width="69" height="6" rx="3"></rect>
                <g id="编组-2" transform="translate(49.000000, 45.000000)">
                    <path d="M58.1410408,44.6302415 L60.6376293,44.6349315 C62.2900785,44.6380358 63.6288811,45.976836 63.6319883,47.6292852 L63.7058346,86.9021122 C63.7089501,88.5589635 62.3683322,89.9046325 60.7114809,89.9077479 C60.707722,89.907755 60.7039631,89.907755 60.7002042,89.9077479 L58.2036156,89.9030579 C56.5511664,89.8999536 55.2123638,88.5611534 55.2092567,86.9087042 L55.1354104,47.6358772 C55.1322949,45.9790259 56.4729127,44.6333569 58.129764,44.6302415 C58.133523,44.6302344 58.1372819,44.6302344 58.1410408,44.6302415 Z" id="矩形" fill-opacity="0.0658052885" fill="#000000" transform="translate(59.420622, 67.268995) rotate(-38.000000) translate(-59.420622, -67.268995) "></path>
                    <ellipse id="椭圆形" fill="#FFFFFF" cx="33.5" cy="33" rx="33.5" ry="33"></ellipse>
                </g>
                <rect id="矩形" fill="#D8D8D8" opacity="0.18766276" x="14" y="58" width="59" height="6" rx="3"></rect>
                <rect id="矩形" fill="#D8D8D8" opacity="0.18766276" x="14" y="83" width="69" height="6" rx="3"></rect>
            </g>
        </g>
    </g>
</svg>