<?xml version="1.0" encoding="UTF-8"?>
<svg width="230px" height="128px" viewBox="0 0 230 128" version="1.1" xmlns="http://www.w3.org/2000/svg" xmlns:xlink="http://www.w3.org/1999/xlink">
    <!-- Generator: Sketch 58 (84663) - https://sketch.com -->
    <title>编组 2</title>
    <desc>Created with Sketch.</desc>
    <g id="网页" stroke="none" stroke-width="1" fill="none" fill-rule="evenodd">
        <g id="云盘备份-14" transform="translate(-1005.000000, -474.000000)">
            <g id="编组-2" transform="translate(1006.000000, 474.000000)">
                <path d="M19.7810627,103.587819 C27.4579356,74.7367655 38.518717,58.2060644 52.9634072,53.9957158 C74.6304423,47.6801929 77.6472661,71.9550621 63.9379464,71.9550621 C50.2286267,71.9550621 50.021211,27.9300922 73.098267,25.4690372 M193.874262,38.0710853 C203.228635,45.3705655 209.06244,71.0556372 202.868117,76.7035496 C196.673795,82.351462 189.459932,71.0601009 197.893717,68.4890275 C206.327502,65.9179541 212.411122,71.8229448 214,83 C215.272572,91.951986 210.009322,99.1551265 207.905195,102.704213" id="形状" stroke="#F0F0F0" stroke-width="2" stroke-linecap="round"></path>
                <g id="编组-13" transform="translate(74.000000, 0.000000)">
                    <g id="编组" transform="translate(0.000000, -0.000000)" fill-rule="nonzero">
                        <path d="M19.2375,0 L80.4375,0 L118.8375,32.8 L118.8375,100.6 C118.8375,109.62 110.1975,117 99.6375,117 L19.2375,117 C8.67750005,117 0.0375000469,109.62 0.0375000469,100.6 L0.0375000469,16.4 C0.0375000469,7.38 8.67750005,0 19.2375,0 Z" id="形状" fill-opacity="0.06" fill="#000000"></path>
                        <path d="M80.4375,0 L118.8375,33 L90.0375,33 C84.2775,33 80.4375,29.7 80.4375,24.75 L80.4375,0 Z" id="路径" fill="#FFFFFF" opacity="0.619"></path>
                    </g>
                    <rect id="矩形" fill="#D8D8D8" x="14" y="33" width="50" height="6" rx="3"></rect>
                    <rect id="矩形" fill="#D8D8D8" x="14" y="58" width="59" height="6" rx="3"></rect>
                    <rect id="矩形" fill="#D8D8D8" x="14" y="83" width="69" height="6" rx="3"></rect>
                    <rect id="矩形" fill="#D8D8D8" opacity="0.18766276" x="14" y="58" width="59" height="6" rx="3"></rect>
                    <rect id="矩形" fill="#D8D8D8" opacity="0.18766276" x="14" y="83" width="69" height="6" rx="3"></rect>
                </g>
                <path d="M23.9419938,121.387296 L22.9031146,119.892151 C22.5568216,119.394635 22.3723973,118.814633 22.3723973,118.222291 L22.3405543,113.370539 C22.0606009,109.759328 19.3101584,105.58955 15.7079147,104.543208 C15.5447191,103.663138 14.842182,103 14.0003317,103 C13.1571546,103 12.4546175,103.663787 12.2914219,104.545156 C8.68984157,105.591498 5.93939909,109.759328 5.65944571,113.370539 L5.62760267,118.222291 C5.62760267,118.814633 5.4431784,119.394635 5.09688535,119.892151 L4.05800621,121.387296 C3.79729133,122.190725 4.44808344,123 5.35627344,123 L22.6437266,123 C23.5519166,123 24.2027087,122.190725 23.9419938,121.387296 Z" id="Stroke-5" stroke-opacity="0.06" stroke="#000000" stroke-width="2" stroke-linecap="round" stroke-linejoin="round" transform="translate(14.000000, 113.000000) rotate(32.000000) translate(-14.000000, -113.000000) "></path>
                <path d="M223.941994,121.387296 L222.903115,119.892151 C222.556822,119.394635 222.372397,118.814633 222.372397,118.222291 L222.340554,113.370539 C222.060601,109.759328 219.310158,105.58955 215.707915,104.543208 C215.544719,103.663138 214.842182,103 214.000332,103 C213.157155,103 212.454618,103.663787 212.291422,104.545156 C208.689842,105.591498 205.939399,109.759328 205.659446,113.370539 L205.627603,118.222291 C205.627603,118.814633 205.443178,119.394635 205.096885,119.892151 L204.058006,121.387296 C203.797291,122.190725 204.448083,123 205.356273,123 L222.643727,123 C223.551917,123 224.202709,122.190725 223.941994,121.387296 Z" id="Stroke-5" stroke-opacity="0.06" stroke="#000000" stroke-width="2" stroke-linecap="round" stroke-linejoin="round" transform="translate(214.000000, 113.000000) scale(-1, 1) rotate(32.000000) translate(-214.000000, -113.000000) "></path>
            </g>
        </g>
    </g>
</svg>