<?xml version="1.0" encoding="UTF-8"?>
<svg width="121px" height="122px" viewBox="0 0 121 122" version="1.1" xmlns="http://www.w3.org/2000/svg" xmlns:xlink="http://www.w3.org/1999/xlink">
    <!-- Generator: Sketch 58 (84663) - https://sketch.com -->
    <title>编组 2</title>
    <desc>Created with Sketch.</desc>
    <g id="网页" stroke="none" stroke-width="1" fill="none" fill-rule="evenodd">
        <g id="云盘备份-12" transform="translate(-1060.000000, -510.000000)">
            <g id="编组-2" transform="translate(1060.000000, 512.000000)">
                <path d="M45,12 L45,6 C45,2.6862915 47.6862915,0 51,0 L51,0 L71,0 C74.3137085,0 77,2.6862915 77,6 L77,12" id="路径" stroke="#D8D8D8" stroke-width="4"></path>
                <rect id="矩形" fill-opacity="0.06" fill="#000000" x="0" y="12" width="121" height="10" rx="5"></rect>
                <path d="M13,22 L109,22 L102.265358,116.284988 C102.115842,118.37821 100.374078,120 98.2755232,120 L22.7625919,120 C20.6483786,120 18.8992675,118.354702 18.7700678,116.24444 L13,22 L13,22 Z" id="矩形" fill-opacity="0.06" fill="#080808"></path>
                <g id="编组-14" transform="translate(27.000000, 39.000000)" fill="#FFFFFF">
                    <rect id="矩形" x="31.9809735" y="1.43577871" width="4" height="72" rx="2"></rect>
                    <rect id="矩形" transform="translate(4.000000, 37.871557) rotate(-2.000000) translate(-4.000000, -37.871557) " x="2" y="1.87155743" width="4" height="72" rx="2"></rect>
                    <rect id="矩形备份" transform="translate(19.236137, 37.000000) rotate(-2.000000) translate(-19.236137, -37.000000) " x="17.236137" y="1" width="4" height="72" rx="2"></rect>
                    <rect id="矩形备份-2" transform="translate(48.236137, 37.435779) rotate(2.000000) translate(-48.236137, -37.435779) " x="46.236137" y="1.43577871" width="4" height="72" rx="2"></rect>
                    <rect id="矩形备份-3" transform="translate(64.236137, 37.435779) rotate(2.000000) translate(-64.236137, -37.435779) " x="62.236137" y="1.43577871" width="4" height="72" rx="2"></rect>
                </g>
            </g>
        </g>
    </g>
</svg>